<svg id="Livello_1" data-name="Livello 1" xmlns="http://www.w3.org/2000/svg" viewBox="0 0 179.17 33.19"><title>frau_logo</title><polygon points="37.65 6.57 37.65 0.69 8.42 0.69 8.42 32.47 19.75 32.47 19.75 19.66 36.89 19.66 36.89 14.12 19.71 14.12 19.71 6.61 37.65 6.57"/><path d="M104.05,20.58,110.17,9.3l5.6,11.28Zm13-19.64H104.48L86.63,32.72H97.69l3.64-6.78h16.74l3.39,6.78h11.92Z" transform="translate(-0.07 -0.25)"/><path d="M149.91.94H138.43V20.58s-.52,7.31,5.88,10.08c.88.38,4.65,2.77,14.5,2.77.38,0,9.52.25,14.3-2.58a10.25,10.25,0,0,0,6.13-9.74c0-.33,0-20.17,0-20.17H167.85V21.06s0,4.11-2.57,5.11c-.23.09-1.64,1.39-6.66,1.39-.62,0-4.35.05-6.74-1.67-.51-.36-2-1.58-2-4.54,0-.62,0-20.41,0-20.41" transform="translate(-0.07 -0.25)"/><path d="M67.21,10.94c.06,3.33-6.06,3.55-6.06,3.55H55.43V6.93l6,.06c6.45.11,5.77,3.22,5.78,3.95m3.59,7.83s8.23-2,8.23-8.7c0-.34.71-8.51-13.59-9.13C64.82.91,44.15,1,44.15,1V32.72H55.49V20.15h4.35L69.5,32.72H82.76Z" transform="translate(-0.07 -0.25)"/><path d="M2.24,2.78h.52c.43,0,.82,0,.82-.52s-.35-.48-.69-.48H2.24Zm-.49-1.4H3c.76,0,1.11.29,1.11.91a.81.81,0,0,1-.83.86l.91,1.4H3.63L2.76,3.18H2.24V4.55H1.75Zm1.06,3.9A2.24,2.24,0,0,0,5,3,2.24,2.24,0,1,0,.56,3,2.24,2.24,0,0,0,2.81,5.28m0-5a2.72,2.72,0,1,1,0,5.43,2.72,2.72,0,1,1,0-5.43" transform="translate(-0.07 -0.25)"/></svg>
