<?xml version="1.0" encoding="UTF-8" standalone="no"?>
<!DOCTYPE svg PUBLIC "-//W3C//DTD SVG 20010904//EN" "http://www.w3.org/TR/2001/REC-SVG-20010904/DTD/svg10.dtd">
<svg version="1.0" xmlns="http://www.w3.org/2000/svg" width="1949.000000pt" height="1181.000000pt" viewBox="0 0 1949.000000 1181.000000" preserveAspectRatio="xMidYMid meet">
<g transform="translate(0.000000,1181.000000) scale(0.100000,-0.100000)" fill="#000000" stroke="none">
<path d="M13472 11620 c-18 -4 -42 -16 -52 -25 -25 -23 -26 -75 -2 -104 15 -19 33 -22 172 -31 85 -5 281 -14 435 -19 283 -10 486 -35 621 -75 116 -35 258 -162 290 -259 29 -89 4 -233 -70 -401 -23 -52 -90 -146 -201 -281 -340 -416 -604 -711 -707 -792 -146 -115 -646 -596 -1523 -1463 -749 -741 -1012 -991 -1620 -1539 -555 -500 -1012 -892 -1221 -1047 -149 -110 -175 -151 -113 -181 20 -10 489 -19 1963 -38 1696 -22 1941 -23 1966 -10 31 16 40 33 40 74 0 52 -20 65 -112 72 -118 9 -200 49 -294 143 -104 105 -175 239 -212 400 -33 150 -14 533 38 761 40 171 207 669 280 831 30 67 72 106 133 122 37 11 469 0 574 -14 45 -5 83 -40 83 -75 0 -10 -20 -87 -45 -171 -24 -84 -65 -222 -90 -307 -124 -425 -206 -913 -192 -1136 28 -410 336 -763 762 -870 331 -84 1039 -110 1360 -51 567 105 986 271 1320 524 79 60 275 259 399 404 250 294 487 674 503 806 5 49 4 52 -22 64 -23 10 -32 9 -62 -7 -40 -22 -59 -54 -103 -170 -60 -157 -223 -431 -347 -585 -68 -84 -126 -120 -204 -128 -88 -8 -108 47 -74 210 9 40 409 1254 890 2698 481 1444 875 2633 875 2642 0 10 -9 22 -19 28 -23 12 -5367 12 -5419 0z m1226 -1522 c31 -40 24 -68 -101 -428 -238 -680 -393 -1170 -452 -1422 -24 -105 -31 -122 -68 -164 -95 -108 -269 -137 -536 -89 -129 22 -162 55 -140 138 21 81 343 673 557 1022 287 471 653 953 723 955 4 0 11 -6 17 -12z"/>
<path d="M13259 10713 c-65 -33 -105 -67 -339 -297 -233 -229 -281 -272 -400 -352 -441 -298 -726 -400 -1101 -393 -200 4 -204 3 -196 -81 3 -30 29 -163 57 -295 69 -318 70 -334 34 -373 -26 -28 -239 -157 -446 -271 -89 -49 -118 -80 -118 -126 0 -42 65 -363 81 -398 6 -14 20 -29 30 -32 20 -7 259 37 368 67 119 32 617 241 751 315 163 89 362 251 676 551 224 213 287 278 365 372 145 173 331 478 508 830 140 279 185 384 177 414 -8 30 -92 82 -154 95 -29 6 -90 11 -136 11 -76 0 -90 -3 -157 -37z"/>
<path d="M13645 10238 c-334 -663 -391 -752 -677 -1073 -397 -445 -583 -617 -858 -798 -343 -225 -589 -326 -1103 -452 -114 -28 -195 -54 -227 -72 -45 -26 -1600 -1345 -1662 -1410 -61 -64 -37 -136 62 -185 193 -95 289 -122 350 -95 46 19 600 495 623 535 31 54 36 117 24 288 -13 194 -7 227 56 284 118 107 499 426 550 460 67 45 132 65 241 75 145 13 357 74 614 176 434 173 679 345 1113 778 275 275 578 683 728 980 146 289 351 730 351 755 0 21 -5 26 -24 26 -21 0 -39 -31 -161 -272z"/>
<path d="M10725 10085 c-5 -2 -71 -20 -145 -40 -186 -51 -266 -91 -349 -173 -111 -110 -131 -179 -135 -451 -3 -203 -15 -255 -90 -381 -88 -150 -182 -234 -561 -500 -611 -429 -864 -573 -1315 -746 -118 -46 -150 -69 -150 -109 0 -48 243 -527 342 -673 102 -151 307 -368 436 -460 52 -37 107 -48 150 -30 17 7 298 238 624 513 924 779 1057 894 1073 925 21 40 19 133 -4 232 -69 298 -91 416 -80 445 8 25 36 45 157 114 81 45 206 118 278 160 151 90 165 108 146 188 -6 25 -39 170 -73 321 -75 340 -133 570 -154 609 -24 47 -96 74 -150 56z m70 -135 c83 -51 85 -156 3 -225 -28 -24 -38 -27 -87 -23 -47 4 -59 10 -87 41 -60 65 -55 138 13 197 42 37 107 41 158 10z m-356 -178 c88 -66 84 -184 -9 -233 -43 -23 -81 -24 -126 -3 -103 49 -97 201 11 250 37 17 91 11 124 -14z"/>
<path d="M10215 4379 c-136 -4 -350 -20 -525 -39 -358 -38 -572 -48 -1055 -51 -203 -1 -433 -4 -510 -8 l-140 -6 -3 -29 c-2 -16 2 -32 10 -37 7 -5 69 -9 138 -9 144 0 170 -10 170 -62 0 -17 -25 -110 -56 -207 -31 -97 -120 -378 -199 -626 -626 -1962 -745 -2339 -745 -2360 0 -29 14 -39 44 -31 15 4 34 26 55 65 59 111 196 211 341 247 84 21 205 14 320 -20 179 -53 628 -140 935 -182 184 -25 634 -26 830 -1 288 37 539 97 703 169 176 77 482 276 564 366 88 97 194 289 250 453 27 81 32 112 36 219 6 188 -29 303 -126 411 -137 153 -294 189 -821 189 -241 0 -290 2 -294 14 -10 25 15 33 123 40 115 8 188 26 520 132 290 93 417 161 609 327 86 73 238 245 267 299 24 46 44 165 44 263 0 369 -248 488 -1010 483 -135 -1 -348 -5 -475 -9z m-55 -117 c39 -21 80 -89 80 -134 0 -16 -50 -183 -111 -371 -61 -188 -139 -431 -174 -540 -35 -109 -75 -217 -89 -241 -51 -88 -143 -145 -233 -146 -44 0 -55 4 -72 26 -12 15 -21 35 -21 44 0 10 18 69 39 131 22 63 121 353 221 644 99 292 189 541 199 555 37 51 100 64 161 32z m-492 -1605 c31 -31 36 -43 40 -94 4 -54 -12 -106 -201 -689 -127 -393 -214 -644 -228 -664 -48 -64 -145 -100 -218 -80 -43 11 -81 50 -81 82 0 11 108 335 240 721 225 656 243 704 277 736 32 31 39 33 85 29 41 -4 57 -12 86 -41z"/>
<path d="M2323 4330 c-25 -10 -32 -53 -11 -66 7 -4 123 -13 258 -20 276 -15 360 -29 424 -73 68 -47 90 -89 83 -164 -9 -115 -47 -174 -296 -467 -58 -67 -177 -188 -265 -269 -88 -80 -329 -312 -536 -516 -206 -203 -443 -435 -525 -515 -301 -292 -913 -836 -1067 -949 -69 -50 -101 -91 -84 -108 3 -3 452 -12 998 -19 722 -9 996 -10 1006 -2 7 6 12 23 10 37 -3 23 -9 27 -49 32 -66 10 -112 34 -159 86 -50 53 -86 129 -101 209 -14 71 -6 232 16 341 17 82 101 342 140 430 37 83 50 87 227 80 152 -7 178 -14 178 -47 0 -9 -18 -77 -41 -151 -110 -366 -145 -635 -101 -775 24 -76 80 -161 140 -214 60 -54 170 -107 257 -125 203 -41 548 -44 725 -6 329 72 540 179 718 366 180 188 360 464 339 520 -14 36 -66 7 -82 -45 -13 -42 -75 -161 -126 -240 -77 -121 -145 -174 -191 -149 -17 9 -20 18 -16 63 3 32 171 553 452 1394 246 738 445 1349 442 1357 -5 13 -179 15 -1373 14 -791 0 -1377 -4 -1390 -9z m637 -797 c0 -14 -42 -147 -94 -297 -88 -256 -176 -538 -191 -616 -13 -62 -34 -91 -82 -112 -40 -17 -61 -20 -147 -16 -120 5 -146 16 -146 60 0 51 238 478 398 713 83 122 216 291 235 298 19 7 27 -2 27 -30z"/>
<path d="M17670 4334 c-379 -13 -692 -34 -880 -59 -195 -26 -443 -37 -870 -37 -234 0 -433 -2 -443 -5 -21 -5 -39 -46 -31 -67 9 -23 61 -36 145 -36 88 0 119 -17 119 -66 0 -20 -423 -1373 -470 -1504 -5 -14 -93 -290 -195 -615 -215 -679 -227 -716 -267 -761 l-30 -34 -124 0 c-111 0 -126 -2 -144 -20 -25 -25 -25 -35 -1 -59 17 -17 48 -19 452 -25 239 -3 643 -7 899 -8 l465 -2 48 23 c26 13 55 34 64 48 17 25 257 788 384 1218 99 334 100 335 215 335 64 0 76 -3 104 -27 30 -25 32 -30 28 -82 -3 -32 -68 -264 -148 -531 -79 -261 -146 -500 -150 -530 -12 -92 5 -196 44 -275 83 -168 239 -247 523 -265 227 -14 466 10 658 65 140 41 226 81 347 162 212 143 247 173 325 289 77 114 163 308 144 327 -18 18 -39 -1 -56 -53 -33 -98 -192 -309 -243 -322 -11 -3 -34 3 -51 13 -60 37 -60 44 22 269 41 113 96 270 123 350 47 139 49 150 49 255 0 100 -3 116 -28 170 -51 110 -127 166 -292 218 -124 39 -210 49 -479 56 -185 4 -250 9 -253 18 -7 19 40 33 105 33 89 0 246 26 367 60 274 77 530 172 653 245 190 111 328 295 372 494 24 105 26 264 5 344 -60 230 -196 315 -595 374 -102 14 -662 25 -910 17z m-106 -118 c52 -22 81 -70 80 -136 -2 -73 -330 -1091 -375 -1162 -73 -114 -232 -175 -294 -113 -14 13 -25 35 -25 48 0 12 81 259 181 547 99 289 198 577 220 640 21 63 44 125 51 138 25 48 97 65 162 38z"/>
<path d="M5247 4323 c-11 -11 -8 -58 5 -71 8 -8 49 -12 120 -12 97 0 110 -2 129 -21 17 -17 20 -30 17 -63 -3 -22 -211 -678 -463 -1456 -251 -778 -472 -1462 -491 -1520 -38 -118 -42 -158 -17 -167 11 -4 25 5 47 33 101 129 269 223 431 239 146 14 458 -28 603 -81 199 -73 954 -464 1147 -594 207 -139 536 -321 683 -377 182 -69 417 -69 637 -1 202 64 406 293 405 456 -1 99 -69 182 -166 202 -68 14 -93 10 -319 -62 -371 -118 -333 -112 -640 -112 -293 -1 -354 5 -543 55 -143 37 -266 86 -379 151 -120 69 -183 116 -195 147 -20 53 -10 131 36 275 157 494 729 2298 801 2526 48 151 94 285 103 298 28 43 69 52 230 52 148 0 172 5 172 37 0 35 -29 37 -1065 54 -1172 20 -1279 21 -1288 12z"/>
<path d="M12583 4243 c-701 -3 -702 -3 -714 -24 -6 -11 -8 -31 -5 -42 10 -40 43 -51 156 -52 125 -2 148 -8 156 -42 8 -29 20 14 -214 -733 -100 -316 -307 -977 -461 -1469 -155 -491 -281 -909 -281 -928 0 -49 26 -55 59 -13 145 184 271 244 506 243 143 -1 278 -23 558 -93 390 -96 858 -180 1007 -180 221 0 514 86 695 204 178 116 385 307 493 455 267 364 351 553 339 758 -6 97 -43 178 -92 202 -77 38 -248 17 -337 -40 -67 -43 -188 -175 -225 -245 -44 -84 -87 -211 -143 -426 -27 -103 -63 -223 -80 -265 -133 -333 -408 -563 -674 -563 -121 0 -263 70 -304 150 -21 41 -23 54 -19 145 5 93 13 125 112 435 249 786 244 771 281 808 28 28 39 33 62 27 42 -10 84 -58 145 -165 109 -190 131 -301 125 -640 -1 -124 1 -231 5 -237 11 -17 62 -17 74 0 6 6 31 77 56 157 210 670 338 1075 450 1425 74 230 131 428 131 450 l1 40 -67 3 c-97 4 -112 -6 -188 -140 -201 -352 -342 -518 -511 -603 -77 -38 -101 -45 -138 -43 -73 5 -77 -15 91 573 89 316 218 676 254 712 75 75 290 -40 516 -275 112 -117 146 -173 192 -315 48 -147 104 -499 107 -667 1 -93 9 -113 47 -124 26 -7 36 -5 52 9 11 10 22 25 24 34 3 9 106 338 230 731 123 393 228 727 231 743 l7 27 -1003 -2 c-552 -2 -1320 -4 -1706 -5z"/>
</g>
</svg>